<svg xmlns="http://www.w3.org/2000/svg"><defs><pattern id="a" width="100" height="100" patternTransform="scale(2)" patternUnits="userSpaceOnUse"><rect width="100%" height="100%" fill="#2b2b31"/><path fill="#ecc94b" d="M92.4 11.82a1.2 1.2 0 0 1 1.11 1.74 6.47 6.47 0 0 0 11.49 5.9 1.2 1.2 0 0 1 1.6-.52c.28.14.49.39.59.7.08.27.05.6-.1.88a8.78 8.78 0 0 1-5.14 4.36 8.79 8.79 0 0 1-11.1-5.7 8.8 8.8 0 0 1 .54-6.72 1.17 1.17 0 0 1 1-.64zm-100 0a1.2 1.2 0 0 1 1.11 1.74 6.47 6.47 0 0 0 2.8 8.68 6.47 6.47 0 0 0 8.68-2.78 1.2 1.2 0 0 1 1.6-.52c.3.14.5.39.6.7.08.27.05.6-.1.88a8.77 8.77 0 0 1-5.14 4.36 8.8 8.8 0 0 1-11.1-5.7 8.8 8.8 0 0 1 .54-6.72 1.17 1.17 0 0 1 1-.64zm61.5 15.26c1.84.06 3.58.76 4.98 1.99a1.08 1.08 0 0 1 .34 1.01 1.09 1.09 0 0 1-.98.87c-.29.02-.56-.07-.78-.27a5.84 5.84 0 0 0-7.72 8.74 1.04 1.04 0 0 1 .1 1.5c-.2.22-.45.35-.74.37-.28.02-.56-.08-.77-.27a7.92 7.92 0 0 1-2.68-5.48 7.92 7.92 0 0 1 7.46-8.45c.26-.02.53-.02.79-.01m-7.18 23.34a9.42 9.42 0 1 1-1.32 18.66 9.4 9.4 0 0 1 1.32-18.66m.06 1.78a7.62 7.62 0 1 0 .47 15.24 7.62 7.62 0 0 0-.47-15.24m-21.4 16.73 4.83 9.23-13.73 7.17-4.82-9.22z"/><path fill="#f44034" d="M107.9 52.52c1.6 0 3-.98 3.78-2.61.54-1.13 1.47-1.8 2.5-1.8 1.04 0 1.98.67 2.51 1.8.78 1.64 2.2 2.6 3.8 2.6 1.59 0 3-.97 3.78-2.6.53-1.13 1.47-1.8 2.5-1.8.86 0 1.65.46 2.2 1.27.2.29.58.4.89.25h.02a.7.7 0 0 0 .29-1.02 4.08 4.08 0 0 0-3.4-1.92c-1.6 0-3 .98-3.78 2.61-.54 1.12-1.48 1.8-2.5 1.8-1.04 0-1.98-.68-2.51-1.8-.78-1.64-2.2-2.6-3.8-2.6-1.59 0-3 .97-3.78 2.6-.53 1.12-1.47 1.8-2.5 1.8-1.04 0-1.97-.68-2.5-1.8-.78-1.64-2.2-2.6-3.8-2.6-1.58 0-3 .95-3.77 2.58a.74.74 0 0 0 .25.94c.37.23.85.08 1.03-.3.53-1.12 1.47-1.8 2.5-1.8 1.04 0 1.97.68 2.5 1.8.77 1.63 2.2 2.6 3.79 2.6m-.04-4.91c1.6 0 3.01-.98 3.79-2.61.53-1.13 1.47-1.8 2.5-1.8 1.04 0 1.97.67 2.5 1.8.78 1.64 2.2 2.6 3.8 2.6s3-.97 3.78-2.6c.54-1.13 1.47-1.8 2.5-1.8 1.04 0 1.98.67 2.51 1.8a.72.72 0 0 0 1.3-.62c-.78-1.64-2.2-2.6-3.8-2.6-1.59 0-3 .97-3.78 2.6-.54 1.13-1.47 1.8-2.5 1.8-1.04 0-1.98-.67-2.51-1.8-.78-1.64-2.2-2.6-3.79-2.6-1.6 0-3.01.97-3.79 2.6-.53 1.13-1.47 1.8-2.5 1.8s-1.97-.67-2.5-1.8c-.78-1.64-2.2-2.6-3.8-2.6-1.59 0-3 .97-3.78 2.6a.72.72 0 0 0 1.3.62c.53-1.13 1.46-1.8 2.5-1.8 1.03 0 1.97.67 2.5 1.8.76 1.63 2.18 2.6 3.77 2.6zm-65-66.88L25.77-6.92 8.72 5.44l19.23 8.6 19.24 8.61L45.02 1.7zm0 100L25.77 93.08 8.72 105.44l19.23 8.6 19.24 8.61-2.17-20.96zM7.9 52.52c1.6 0 3-.98 3.78-2.61.54-1.13 1.47-1.8 2.5-1.8 1.04 0 1.98.67 2.51 1.8.78 1.64 2.2 2.6 3.8 2.6 1.59 0 3-.97 3.78-2.6.53-1.13 1.47-1.8 2.5-1.8.86 0 1.65.46 2.2 1.27.2.29.57.4.89.25h.02a.7.7 0 0 0 .29-1.02 4.08 4.08 0 0 0-3.4-1.92c-1.6 0-3.01.98-3.78 2.61-.54 1.12-1.48 1.8-2.5 1.8-1.04 0-1.98-.68-2.51-1.8-.78-1.64-2.2-2.6-3.8-2.6-1.59 0-3 .97-3.78 2.6-.53 1.12-1.47 1.8-2.5 1.8-1.04 0-1.97-.68-2.5-1.8-.78-1.64-2.2-2.6-3.8-2.6-1.58 0-3 .95-3.77 2.58a.74.74 0 0 0 .25.94c.37.23.85.08 1.03-.3.53-1.12 1.47-1.8 2.5-1.8 1.04 0 1.97.68 2.5 1.8.77 1.63 2.19 2.6 3.79 2.6m-.04-4.91c1.6 0 3.01-.98 3.79-2.61.53-1.13 1.47-1.8 2.5-1.8 1.04 0 1.97.67 2.5 1.8.78 1.64 2.2 2.6 3.8 2.6 1.59 0 3-.97 3.78-2.6.54-1.13 1.47-1.8 2.5-1.8 1.04 0 1.98.67 2.51 1.8a.72.72 0 0 0 1.3-.62c-.78-1.64-2.2-2.6-3.8-2.6-1.59 0-3 .97-3.78 2.6-.54 1.13-1.47 1.8-2.5 1.8-1.04 0-1.98-.67-2.51-1.8-.78-1.64-2.2-2.6-3.79-2.6-1.6 0-3.01.97-3.79 2.6-.53 1.13-1.47 1.8-2.5 1.8s-1.97-.67-2.5-1.8c-.78-1.64-2.2-2.6-3.8-2.6-1.59 0-3 .97-3.78 2.6a.72.72 0 0 0 1.3.62c.53-1.13 1.46-1.8 2.5-1.8 1.03 0 1.97.67 2.5 1.8.76 1.63 2.17 2.6 3.77 2.6z"/><path fill="#00bdd6" d="M53.04 81.06a2 2 0 0 0 3.95-.66 2 2 0 0 0-3.95.66M14.89 63.92a3.28 3.28 0 0 0 4.63-4.63 3.28 3.28 0 0 0-4.63 0 3.26 3.26 0 0 0 0 4.63m52.8-52.54a5.99 5.99 0 0 0 11.8-1.97 5.99 5.99 0 0 0-11.8 1.97"/><path fill="#8059d4" d="M80.37 64.6a13.58 13.58 0 1 1-1.14 27.15 13.58 13.58 0 0 1 1.14-27.14zM26.83 26.14l-1.67 4.77-1.68 4.78-3.3-3.84L16.9 28l4.97-.93zm54.32 15.72 1.76 4.73 1.78 4.74-4.99-.83-4.99-.84 3.22-3.9z"/></pattern></defs><rect width="800%" height="800%" fill="url(#a)"/></svg>