<svg xmlns="http://www.w3.org/2000/svg" x="0px" y="0px" width="100" height="100" viewBox="0 0 48 48">
<path fill="#fcbf95" d="M13.223,24.213c0,0-3.574-4.979-6-0.574s5.298,9.479,7.532,6.255c0,0,4.436,6.83,6.83,7.66 l-0.319,4.596l5.553,4.021l3.862-3.479l-1.085-4.947c0,0,5.936-3.926,6.766-8.968c0,0,2.553,2.426,5.745-1.915 c3.191-4.34-1.691-4.628-1.691-4.628l-4.5,2.33c0,0-4.404-2.809-5.298-6.67c0,0-4.117,6.223-9.75,7.085l1.628-6.654L13.223,24.213z"></path><path fill="#373837" d="M9,22l-1.824-6.069l1.197-4.452l2.729-3.207c0,0,5.745-8.043,14.936-6.271s9.718,5.649,9.718,5.649 s1.197-2.872-1.34-5.17c0,0,3.973,1.963,2.872,5.84c0,0,3.303,0.957,4.213,1.819c0,0-2.777-1.197-2.968-0.144 c0,0,5.505,4.835,3.495,12.399c0,0-3.447-1.149-5.362,2.537c0,0-4.548-3.303-5.984-7.42c0,0-3.59,6.846-9.814,7.468l1.628-6.654 l-9.239,6.032C13.255,24.356,11.112,21.319,9,22z"></path><path fill="#010101" d="M43.186,23.079c-0.091-0.305-0.267-0.532-0.479-0.72c0.882-4.503-0.494-8.915-3.414-12.35 c1.074,0.128,2.082,0.57,2.908,1.321c0.482,0.438,1.119-0.218,0.707-0.707c-1.236-1.466-2.994-2.364-4.883-2.561 c0.378-2.596-1.313-5.285-3.887-5.975c-0.533-0.143-0.904,0.652-0.385,0.914c1.334,0.675,2.122,2.204,1.941,3.669 c-1.059-1.414-2.429-2.601-3.969-3.455c-2.061-1.143-4.398-1.51-6.726-1.658c-2.41-0.154-5.068-0.029-7.337,0.87 c-2.079,0.824-3.893,2.237-5.471,3.799c-0.938,0.929-1.749,1.944-2.584,2.962c-0.844,1.029-2.014,2.187-3.475,1.927 c-0.627-0.112-0.901,0.843-0.266,0.964c0.606,0.115,1.203,0.157,1.802,0.142C6.343,14.378,6,17.052,6.85,19.479 c0.155,0.442,0.73,0.453,0.918,0.098c0.212,0.684,0.451,1.361,0.736,2.027c-0.73,0.264-1.341,0.809-1.694,1.628 c-1.255,2.912,0.917,6.752,3.701,7.893c1.401,0.574,2.895,0.392,3.962-0.589c0.325,0.531,0.67,1.05,1.018,1.562 c1.49,2.195,3.194,4.278,5.343,5.853c0.32,1.308,0.273,2.79-0.241,4.043c-0.082,0.2,0.055,0.464,0.23,0.565 c1.97,1.137,3.841,2.431,5.592,3.883c0.222,0.184,0.484,0.188,0.707,0c0.687-0.578,1.375-1.157,2.062-1.735 c0.321-0.27,0.642-0.54,0.962-0.81c0.283-0.238,0.637-0.459,0.739-0.836c0.094-0.346-0.04-0.755-0.096-1.097 c-0.071-0.429-0.141-0.858-0.212-1.288c-0.14-0.848-0.279-1.696-0.419-2.544c0.687-0.532,1.334-1.117,1.947-1.733 c1.027-1.031,2.076-2.082,2.945-3.253c0.774-1.043,1.224-2.226,1.511-3.462c0.148,0.114,0.312,0.213,0.499,0.283 c0.716,0.268,1.473,0.043,2.141-0.254c1.347-0.598,2.723-1.368,3.477-2.686C43.341,25.87,43.569,24.365,43.186,23.079z M7.557,15.158c0.235-1.144,0.722-2.237,1.477-3.164c0.231-0.284,0.14-0.619-0.109-0.766c0.775-0.598,1.441-1.405,2.056-2.174 c1.412-1.765,3.078-3.407,4.987-4.63c2.061-1.321,4.347-1.813,6.775-1.901c2.356-0.086,4.966,0.079,7.183,0.941 c2.25,0.874,4.287,2.539,5.538,4.606c0.176,0.291,0.707,0.36,0.863,0c0.368-0.846,0.452-1.769,0.298-2.647 c0.435,0.91,0.589,1.955,0.316,2.959c-0.087,0.32,0.158,0.625,0.482,0.633c0.181,0.004,0.359,0.023,0.537,0.042 c-0.294,0.142-0.433,0.512-0.167,0.785c3.153,3.228,4.778,7.58,3.984,12.048c-0.814-0.207-1.787-0.118-2.466,0.084 c-1.191,0.354-2.163,1.173-2.766,2.23c-1.117-0.828-2.177-1.729-3.159-2.715c0.018-0.032,0.04-0.061,0.05-0.099 c0.067-0.245-0.083-0.564-0.349-0.615c-0.15-0.029-0.303-0.034-0.454-0.055c-0.807-0.867-1.571-1.918-1.313-3.088 c0.115-0.52-0.679-0.932-0.914-0.385c-0.565,1.313-1.449,2.391-2.424,3.402c-1.129,1.009-2.513,1.783-3.821,2.529 c-0.685,0.391-1.38,0.769-2.09,1.113c-0.152,0.074-0.309,0.139-0.464,0.208c0.518-1.938,0.985-3.89,1.374-5.859 c0.078-0.395-0.344-0.825-0.734-0.565c-2.911,1.944-5.878,3.8-8.895,5.573c-0.673-0.988-1.675-1.758-2.828-2.09 c-0.36-0.104-0.716-0.145-1.061-0.137C9.46,21.36,9.45,21.298,9.422,21.234c-0.779-1.783-1.276-3.681-1.474-5.617 C7.923,15.358,7.751,15.208,7.557,15.158z M30.476,19.174c0.179,0.52,0.473,1.006,0.814,1.463 c-0.766,0.011-1.525,0.121-2.263,0.338C29.558,20.412,30.048,19.817,30.476,19.174z M20.566,20.576 c-0.083-0.026-0.169-0.038-0.253-0.059c0.481-0.31,0.964-0.618,1.443-0.933c-0.096,0.455-0.193,0.909-0.296,1.362 C21.169,20.804,20.874,20.672,20.566,20.576z M11.025,30.254c-1.106-0.388-1.993-1.292-2.608-2.264 c-0.691-1.092-1.172-2.481-0.879-3.781c0.27-1.198,1.155-2.014,2.432-1.759c1.328,0.265,2.398,1.254,2.953,2.461 c-0.03,0.398-0.037,0.796-0.012,1.192c-1.095-1.041-2.322-1.949-3.838-2.23c-0.265-0.049-0.539,0.073-0.615,0.349 c-0.067,0.243,0.082,0.565,0.349,0.615c0.995,0.185,1.841,0.669,2.607,1.279c-0.475,0.081-0.937,0.207-1.378,0.421 c-0.108,0.052-0.199,0.187-0.23,0.299c-0.033,0.12-0.018,0.279,0.05,0.385c0.156,0.242,0.432,0.302,0.684,0.179 c0.041-0.02,0.084-0.039,0.126-0.057c0.337-0.138,0.688-0.235,1.048-0.289c0.042-0.005,0.084-0.01,0.126-0.014 c0.135-0.012,0.255-0.048,0.354-0.146c0.016-0.016,0.025-0.04,0.039-0.058c0.339,0.324,0.666,0.66,0.984,0.995 c0.056,0.192,0.101,0.387,0.173,0.576c0.162,0.425,0.361,0.833,0.574,1.234C13.225,30.499,12.072,30.621,11.025,30.254z M29.885,42.81c-0.058,0.117-0.274,0.234-0.376,0.32c-0.16,0.135-0.321,0.27-0.481,0.405c-0.275,0.231-0.55,0.463-0.825,0.694 c-0.481,0.405-0.962,0.81-1.444,1.215c-1.609-1.305-3.308-2.492-5.093-3.545c0.098-0.292,0.186-0.587,0.242-0.895 c1.338,0.729,3.09,0.294,4.555-0.096c0.859,0.023,1.719,0.005,2.575-0.1c0.244-0.03,0.442-0.162,0.486-0.417 c0.01,0.06,0.02,0.121,0.03,0.181c0.061,0.368,0.121,0.736,0.182,1.104C29.779,41.94,29.992,42.593,29.885,42.81z M34.892,31.546 c-0.635,1.184-1.582,2.152-2.5,3.117c-0.855,0.9-1.719,1.8-2.691,2.577c-0.518,0.414-1.072,0.782-1.653,1.103 c-0.606,0.335-1.348,0.77-2.054,0.821c-0.552,0.04-1.152-0.211-1.66-0.403c-0.602-0.227-1.181-0.513-1.736-0.836 c-2.212-1.288-3.987-3.198-5.483-5.251c-1.77-2.429-3.631-5.066-3.154-8.226c1.728-1.016,3.434-2.067,5.127-3.139 c0.009,0.001,0.017,0.006,0.026,0.006c0.059,0.006,0.118,0.012,0.177,0.018c0.035,0.004,0.071,0.008,0.106,0.012 c0.005,0.001,0.021,0.003,0.035,0.004c0.014,0.002,0.029,0.004,0.034,0.005c0.026,0.004,0.052,0.008,0.078,0.012 c0.056,0.009,0.113,0.018,0.169,0.029c0.198,0.037,0.394,0.084,0.587,0.144c0.089,0.028,0.177,0.058,0.264,0.091 c0.045,0.017,0.09,0.036,0.135,0.054c0.021,0.01,0.042,0.019,0.064,0.028c0.16,0.072,0.316,0.155,0.471,0.236 c-0.226,0.943-0.47,1.881-0.726,2.816c-1.696-0.348-3.432-0.351-5.129-0.002c-0.265,0.054-0.417,0.367-0.349,0.615 c0.076,0.275,0.35,0.404,0.615,0.349c0.263-0.054,0.53-0.086,0.796-0.121c0.122,0.759,0.46,1.475,1.022,2.012 c0.387,0.37,0.839,0.622,1.388,0.509c0.467-0.096,0.847-0.455,1.069-0.863c0.254-0.467,0.374-0.995,0.443-1.519 c0.115,0.018,0.214-0.004,0.299-0.048c0.07,0.039,0.149,0.064,0.235,0.063c0.473-0.005,0.955-0.268,1.373-0.459 c0.774-0.356,1.526-0.764,2.267-1.184c0.031-0.018,0.062-0.036,0.093-0.053c-0.226,0.263-0.449,0.528-0.653,0.807 c-0.38,0.52,0.487,1.019,0.863,0.505c0.907-1.24,2.054-2.288,3.161-3.363c0.124,0.152,0.334,0.25,0.52,0.174 c1.156-0.468,2.405-0.644,3.641-0.523c0.008,0.009,0.016,0.018,0.024,0.026c0.731,0.771,1.517,1.484,2.329,2.166 c-2.135-0.169-4.277,0.243-6.211,1.165c-0.581,0.277-0.074,1.14,0.505,0.863c0.195-0.093,0.402-0.155,0.602-0.237 c0.004,0.023-0.001,0.046,0.008,0.069c0.028,0.07,0.066,0.133,0.097,0.201c0.053,0.372,0.205,0.711,0.483,0.994 c0.261,0.265,0.593,0.446,0.951,0.534c0.013,0.003,0.025,0.011,0.039,0.014c0.023,0.005,0.043,0,0.066,0.003 c0.083,0.016,0.166,0.034,0.251,0.04c1.011,0.075,1.893-0.773,2.113-1.715c0.073-0.314,0.08-0.648,0.012-0.962 c0.442-0.007,0.885,0.001,1.326,0.045c0.247,0.025,0.453-0.206,0.487-0.439c0.297,0.234,0.584,0.481,0.889,0.704 c0,0.001,0,0.003,0,0.004c-0.01,0.036-0.026,0.067-0.029,0.109C35.97,27.315,35.891,29.684,34.892,31.546z M42.361,24.503 c-0.008,0.497-0.104,0.988-0.277,1.454c-0.388,1.047-1.207,1.746-2.161,2.275c-0.57,0.316-1.188,0.679-1.831,0.816 c-0.387,0.083-1.125,0.007-1.178-0.518c-0.01-0.094-0.044-0.17-0.088-0.236c0.137-0.967,0.206-1.948,0.268-2.909 c0.002-0.005,0.005-0.007,0.007-0.012c0.315-0.951,0.994-1.746,1.886-2.203c0.48-0.245,1.024-0.377,1.562-0.393 c0.27-0.008,0.541,0.006,0.806,0.057c0.217,0.042,0.555,0.086,0.727,0.244C42.386,23.358,42.367,24.126,42.361,24.503z"></path><path fill="#010101" d="M40.306,24.046c-1.22,0.545-2.309,1.398-3.13,2.452c-0.16,0.206-0.216,0.509,0,0.707 c0.179,0.164,0.536,0.22,0.707,0c0.194-0.249,0.402-0.485,0.623-0.708c0.073,0.044,0.153,0.076,0.246,0.076 c0.1,0,0.199,0.009,0.297,0.019c0.206,0.032,0.408,0.08,0.602,0.155c0.114,0.044,0.284,0.009,0.385-0.05 c0.104-0.061,0.203-0.18,0.23-0.299c0.029-0.128,0.023-0.272-0.05-0.385c-0.026-0.034-0.052-0.067-0.078-0.101 c-0.062-0.062-0.136-0.105-0.221-0.129c-0.14-0.054-0.288-0.088-0.436-0.121c0.023-0.016,0.046-0.033,0.069-0.049 c0.13-0.089,0.263-0.175,0.398-0.256c0.278-0.167,0.566-0.316,0.862-0.448c0.24-0.107,0.315-0.474,0.179-0.684 C40.83,23.977,40.562,23.931,40.306,24.046z"></path><path fill="#010101" d="M27.357,34.784c-1.245,0.02-2.49-0.005-3.733-0.076c-0.27-0.015-0.5,0.241-0.5,0.5 c0,0.284,0.229,0.485,0.5,0.5c1.243,0.071,2.488,0.096,3.733,0.076C27.999,35.774,28.001,34.774,27.357,34.784z"></path><path fill="#010101" d="M25.425,31.665c0.129-0.006,0.263-0.048,0.354-0.146c0.09-0.098,0.146-0.218,0.146-0.354 c0-0.258,0-0.515,0-0.773c0-0.128-0.056-0.263-0.146-0.354c-0.087-0.087-0.229-0.152-0.354-0.146 c-0.129,0.006-0.263,0.048-0.354,0.146c-0.09,0.098-0.146,0.218-0.146,0.354c0,0.258,0,0.515,0,0.773 c0,0.128,0.056,0.263,0.146,0.354C25.158,31.605,25.3,31.67,25.425,31.665z"></path><path fill="#010101" d="M13.189,17.203c0.835-5.008,5.728-7.546,9.841-9.582c0.577-0.286,0.071-1.148-0.505-0.863 c-4.341,2.149-9.422,4.91-10.3,10.18C12.12,17.566,13.083,17.837,13.189,17.203z"></path><path fill="#010101" d="M20.239,14.656c-0.417,0.486,0.287,1.196,0.707,0.707c0.969-1.129,1.938-2.257,2.907-3.386 c0.477-0.556,0.955-1.112,1.432-1.668c0.44-0.512,0.911-1.014,1.247-1.603c0.319-0.56-0.545-1.064-0.863-0.505 C25.354,8.755,24.907,9.22,24.495,9.7c-0.477,0.556-0.955,1.112-1.432,1.668C22.121,12.465,21.18,13.561,20.239,14.656z"></path><path fill="#010101" d="M32.79,17.517c-0.076,0.638,0.925,0.632,1,0c0.376-3.172-0.491-6.447-2.383-9.02 c-0.377-0.513-1.246-0.015-0.863,0.505C32.348,11.456,33.148,14.493,32.79,17.517z"></path>
</svg>